<svg xmlns="http://www.w3.org/2000/svg" xmlns:xlink="http://www.w3.org/1999/xlink" width="40" zoomAndPan="magnify" viewBox="0 0 30 30.000001" height="40" preserveAspectRatio="xMidYMid meet" version="1.0"><defs><clipPath id="981dbe68c8"><path d="M 0.992188 0.507812 L 29.296875 0.507812 L 29.296875 28.816406 L 0.992188 28.816406 Z M 0.992188 0.507812 " clip-rule="nonzero"/></clipPath><clipPath id="37ac6987b0"><path d="M 0.992188 0.507812 L 14 0.507812 L 14 18 L 0.992188 18 Z M 0.992188 0.507812 " clip-rule="nonzero"/></clipPath><clipPath id="fa1fdcc750"><path d="M 6 17 L 17 17 L 17 28.816406 L 6 28.816406 Z M 6 17 " clip-rule="nonzero"/></clipPath><clipPath id="1f92dcefc0"><path d="M 18 4 L 29.296875 4 L 29.296875 21 L 18 21 Z M 18 4 " clip-rule="nonzero"/></clipPath></defs><g clip-path="url(#981dbe68c8)"><path fill="#d88864" d="M 29.296875 14.660156 C 29.296875 16.71875 28.859375 18.675781 28.066406 20.441406 C 25.855469 25.375 20.902344 28.816406 15.144531 28.816406 C 13.597656 28.816406 12.105469 28.566406 10.710938 28.105469 C 10.707031 28.105469 10.707031 28.105469 10.707031 28.105469 C 9.621094 27.746094 8.59375 27.261719 7.640625 26.664062 C 4.371094 24.617188 2 21.269531 1.246094 17.347656 C 1.078125 16.476562 0.992188 15.582031 0.992188 14.660156 C 0.992188 7.96875 5.632812 2.363281 11.875 0.886719 C 12.921875 0.640625 14.019531 0.507812 15.144531 0.507812 C 18.964844 0.507812 22.429688 2.019531 24.976562 4.480469 C 27.640625 7.050781 29.296875 10.664062 29.296875 14.660156 " fill-opacity="1" fill-rule="nonzero"/></g><g clip-path="url(#37ac6987b0)"><path fill="#a56349" d="M 13.597656 8.789062 C 13.238281 9.28125 12.664062 9.570312 12.082031 9.746094 C 11.082031 10.046875 9.992188 10.054688 8.988281 9.761719 C 8.300781 9.566406 7.652344 9.230469 6.945312 9.125 C 5.851562 8.957031 4.660156 9.414062 4.046875 10.332031 C 3.417969 11.285156 3.472656 12.511719 3.46875 13.652344 C 3.464844 14.789062 3.320312 16.0625 2.453125 16.800781 C 2.101562 17.101562 1.6875 17.269531 1.246094 17.347656 C 1.078125 16.476562 0.992188 15.582031 0.992188 14.660156 C 0.992188 7.96875 5.632812 2.363281 11.875 0.886719 C 11.820312 1.058594 11.78125 1.234375 11.765625 1.414062 C 11.644531 2.738281 12.519531 3.914062 13.203125 5.054688 C 13.886719 6.195312 14.386719 7.71875 13.597656 8.789062 " fill-opacity="1" fill-rule="nonzero"/></g><g clip-path="url(#fa1fdcc750)"><path fill="#a56349" d="M 15.324219 23.503906 C 14.472656 24.386719 12.972656 24.597656 12.429688 25.699219 C 12.238281 26.082031 12.199219 26.53125 12.027344 26.925781 C 11.78125 27.480469 11.28125 27.882812 10.710938 28.105469 C 10.707031 28.105469 10.707031 28.105469 10.707031 28.105469 C 9.621094 27.746094 8.59375 27.261719 7.640625 26.664062 C 7.332031 25.945312 7.054688 25.21875 6.804688 24.476562 C 6.46875 23.46875 6.21875 22.261719 6.867188 21.421875 C 7.246094 20.925781 7.847656 20.679688 8.378906 20.351562 C 9.199219 19.84375 9.863281 19.121094 10.625 18.53125 C 11.390625 17.9375 12.332031 17.464844 13.289062 17.59375 C 14.492188 17.753906 15.390625 18.835938 15.800781 19.980469 C 16.214844 21.15625 16.191406 22.601562 15.324219 23.503906 " fill-opacity="1" fill-rule="nonzero"/></g><g clip-path="url(#1f92dcefc0)"><path fill="#a56349" d="M 29.296875 14.660156 C 29.296875 16.71875 28.859375 18.675781 28.066406 20.441406 C 27.089844 20.667969 26.089844 20.863281 25.101562 20.703125 C 24.011719 20.53125 22.9375 19.820312 22.671875 18.753906 C 22.375 17.554688 23.113281 16.132812 22.398438 15.128906 C 21.925781 14.46875 21.03125 14.3125 20.3125 13.941406 C 18.820312 13.164062 18.070312 11.199219 18.671875 9.625 C 18.777344 9.339844 18.925781 9.070312 19.140625 8.851562 C 19.75 8.226562 20.886719 8.234375 21.492188 8.867188 C 21.949219 9.351562 22.164062 10.148438 22.808594 10.320312 C 23.550781 10.515625 24.175781 9.691406 24.296875 8.933594 C 24.507812 7.578125 23.910156 6.054688 24.632812 4.890625 C 24.730469 4.734375 24.84375 4.597656 24.976562 4.480469 C 27.640625 7.050781 29.296875 10.664062 29.296875 14.660156 " fill-opacity="1" fill-rule="nonzero"/></g><path fill="#ed9b72" d="M 23.523438 4.628906 C 23.5 4.183594 23.160156 3.769531 22.722656 3.664062 C 22.375 3.582031 21.996094 3.683594 21.65625 3.578125 C 21.191406 3.429688 20.917969 2.949219 20.492188 2.710938 C 20.003906 2.4375 19.367188 2.535156 18.910156 2.851562 C 18.449219 3.171875 18.152344 3.675781 17.972656 4.207031 C 17.835938 4.597656 17.765625 5.039062 17.925781 5.421875 C 18.058594 5.746094 18.34375 5.984375 18.660156 6.132812 C 18.972656 6.28125 19.320312 6.351562 19.660156 6.414062 C 20.0625 6.488281 20.496094 6.578125 20.765625 6.882812 C 20.914062 7.050781 20.996094 7.265625 21.140625 7.4375 C 21.46875 7.835938 22.058594 7.929688 22.558594 7.808594 C 22.699219 7.773438 22.839844 7.722656 22.957031 7.632812 C 23.285156 7.386719 23.34375 6.914062 23.328125 6.5 C 23.316406 6.191406 23.285156 5.863281 23.351562 5.566406 C 23.421875 5.269531 23.488281 4.96875 23.519531 4.660156 L 23.523438 4.628906 " fill-opacity="1" fill-rule="nonzero"/><path fill="#ed9b72" d="M 13.234375 12.671875 C 12.769531 12.089844 12.097656 11.636719 11.355469 11.605469 C 10.285156 11.558594 9.230469 12.371094 8.21875 12.03125 C 7.867188 11.917969 7.574219 11.671875 7.226562 11.550781 C 6.699219 11.371094 6.09375 11.5 5.648438 11.835938 C 5.207031 12.171875 4.925781 12.695312 4.828125 13.242188 C 4.71875 13.871094 4.835938 14.527344 4.6875 15.148438 C 4.480469 16.03125 3.761719 16.753906 3.679688 17.660156 C 3.605469 18.457031 4.113281 19.273438 4.863281 19.558594 C 5.613281 19.84375 6.535156 19.574219 7.011719 18.929688 C 7.253906 18.601562 7.464844 18.144531 7.871094 18.132812 L 8.457031 18.113281 C 8.570312 18.109375 8.6875 18.125 8.800781 18.144531 C 9.066406 18.183594 9.351562 18 9.511719 17.773438 C 9.703125 17.507812 9.789062 17.179688 9.960938 16.898438 C 10.257812 16.410156 10.785156 16.105469 11.308594 15.875 C 11.835938 15.644531 12.390625 15.46875 12.863281 15.140625 C 13.332031 14.8125 13.71875 14.285156 13.691406 13.714844 C 13.671875 13.328125 13.472656 12.972656 13.234375 12.671875 " fill-opacity="1" fill-rule="nonzero"/><path fill="#000000" d="M 10.660156 12.375 C 10.582031 12.375 10.5 12.34375 10.441406 12.28125 C 10.054688 11.871094 9.644531 11.667969 9.242188 11.675781 C 8.574219 11.691406 8.070312 12.265625 8.066406 12.269531 C 7.960938 12.394531 7.773438 12.410156 7.648438 12.304688 C 7.523438 12.199219 7.507812 12.011719 7.613281 11.886719 C 7.640625 11.855469 8.285156 11.101562 9.222656 11.078125 C 9.808594 11.0625 10.367188 11.332031 10.875 11.875 C 10.988281 11.996094 10.984375 12.183594 10.863281 12.296875 C 10.804688 12.351562 10.734375 12.375 10.660156 12.375 " fill-opacity="1" fill-rule="nonzero"/><path fill="#000000" d="M 19.4375 12.375 C 19.371094 12.375 19.300781 12.351562 19.246094 12.304688 C 19.121094 12.199219 19.105469 12.011719 19.210938 11.886719 C 19.238281 11.855469 19.882812 11.101562 20.820312 11.078125 C 21.40625 11.0625 21.964844 11.332031 22.476562 11.875 C 22.585938 11.996094 22.582031 12.183594 22.460938 12.296875 C 22.34375 12.410156 22.152344 12.402344 22.039062 12.28125 C 21.652344 11.867188 21.253906 11.664062 20.835938 11.675781 C 20.171875 11.691406 19.671875 12.265625 19.667969 12.269531 C 19.605469 12.339844 19.523438 12.375 19.4375 12.375 " fill-opacity="1" fill-rule="nonzero"/><path fill="#ffffff" d="M 18.96875 15.617188 C 19.476562 15.617188 19.8125 16.15625 19.582031 16.609375 C 18.726562 18.316406 17.023438 19.480469 15.0625 19.480469 C 13.105469 19.480469 11.402344 18.316406 10.546875 16.609375 C 10.316406 16.15625 10.648438 15.617188 11.160156 15.617188 L 18.96875 15.617188 " fill-opacity="1" fill-rule="nonzero"/><path fill="#dd4a5c" d="M 9.1875 14.785156 C 9.1875 15.230469 8.496094 15.59375 7.644531 15.59375 C 6.789062 15.59375 6.101562 15.230469 6.101562 14.785156 C 6.101562 14.339844 6.789062 13.980469 7.644531 13.980469 C 8.496094 13.980469 9.1875 14.339844 9.1875 14.785156 " fill-opacity="1" fill-rule="nonzero"/><path fill="#dd4a5c" d="M 24.191406 14.855469 C 24.191406 15.300781 23.5 15.664062 22.648438 15.664062 C 21.792969 15.664062 21.101562 15.300781 21.101562 14.855469 C 21.101562 14.410156 21.792969 14.050781 22.648438 14.050781 C 23.5 14.050781 24.191406 14.410156 24.191406 14.855469 " fill-opacity="1" fill-rule="nonzero"/></svg>